<svg width="18" height="11" viewBox="0 0 18 11" fill="none" xmlns="http://www.w3.org/2000/svg">
<path d="M17.389 1.84C17.3372 1.78622 17.2708 1.74263 17.1947 1.71259C17.1186 1.68254 17.0349 1.66683 16.9501 1.66667H4.11677L3.86677 1.03112C3.83931 0.962875 3.79162 0.900962 3.72777 0.850658C3.66392 0.800354 3.58581 0.763152 3.5001 0.742227L1.22232 0.182227C1.15229 0.165009 1.07869 0.158996 1.00575 0.164531C0.932808 0.170066 0.861942 0.18704 0.797199 0.214485C0.666444 0.269913 0.568568 0.364624 0.525102 0.477783C0.481636 0.590942 0.496141 0.713279 0.565425 0.817883C0.634709 0.922487 0.753098 1.00079 0.894547 1.03556L2.88899 1.52445L5.43344 7.95556L4.52788 8.55112L4.45566 8.60889C4.23171 8.81635 4.10483 9.0796 4.09673 9.35363C4.08862 9.62766 4.19979 9.89542 4.41121 10.1111C4.56264 10.2584 4.75505 10.3754 4.97307 10.4525C5.19109 10.5297 5.42865 10.565 5.66677 10.5556H14.939C15.0863 10.5556 15.2276 10.5087 15.3318 10.4254C15.436 10.342 15.4945 10.229 15.4945 10.1111C15.4945 9.99324 15.436 9.8802 15.3318 9.79685C15.2276 9.7135 15.0863 9.66667 14.939 9.66667H5.57788C5.51391 9.66492 5.45158 9.65001 5.39691 9.62336C5.34225 9.59672 5.2971 9.55924 5.26582 9.51456C5.23455 9.46988 5.2182 9.4195 5.21837 9.3683C5.21853 9.31709 5.2352 9.26678 5.26677 9.22223L6.60566 8.33334H15.1779C15.3048 8.3363 15.4291 8.30439 15.5302 8.24293C15.6313 8.18147 15.703 8.09417 15.7334 7.99556L17.5112 2.21778C17.5281 2.15152 17.5259 2.08305 17.5047 2.01759C17.4835 1.95212 17.4439 1.89139 17.389 1.84Z" fill="white"/>
</svg>

