<svg width="18" height="18" viewBox="0 0 18 18" fill="none" xmlns="http://www.w3.org/2000/svg">
<path d="M17.017 3.95163L14.0487 0.983301C13.6612 0.619405 13.1536 0.410607 12.6223 0.396625C12.0909 0.382642 11.573 0.564452 11.167 0.907468L1.41699 10.6575C1.06682 11.0106 0.848785 11.4734 0.799488 11.9683L0.333655 16.4858C0.319061 16.6445 0.33965 16.8044 0.393954 16.9542C0.448258 17.104 0.53494 17.24 0.647821 17.3525C0.749048 17.4529 0.869099 17.5323 1.00109 17.5862C1.13308 17.6401 1.27441 17.6675 1.41699 17.6666H1.51449L6.03199 17.255C6.52685 17.2057 6.98969 16.9876 7.34282 16.6375L17.0928 6.88747C17.4712 6.48768 17.6758 5.95418 17.6615 5.40388C17.6473 4.85358 17.4155 4.33135 17.017 3.95163ZM5.83699 15.0883L2.58699 15.3916L2.87949 12.1416L9.00032 6.09663L11.9253 9.02164L5.83699 15.0883ZM13.3337 7.56997L10.4303 4.66663L12.5428 2.49997L15.5003 5.45747L13.3337 7.56997Z" fill="#424242"/>
</svg>
