<svg width="18" height="18" viewBox="0 0 18 18" fill="none" xmlns="http://www.w3.org/2000/svg">
<path d="M0.523651 17.4746C0.651461 17.6024 0.81348 17.6905 0.990204 17.7283C1.16693 17.7662 1.35082 17.7521 1.51974 17.6879L17.1459 11.7734H17.149C17.3292 11.7041 17.4836 11.5809 17.5911 11.4206C17.6986 11.2603 17.754 11.0707 17.7498 10.8777C17.7455 10.6847 17.6818 10.4977 17.5672 10.3423C17.4527 10.1869 17.293 10.0706 17.11 10.0094L17.094 10.0043L11.7307 7.71405C11.6261 7.6823 11.515 7.67854 11.4084 7.70314C11.3019 7.72775 11.2037 7.77987 11.1237 7.85429L2.51584 15.875C2.49019 15.9006 2.45974 15.921 2.42623 15.9349C2.39272 15.9487 2.3568 15.9559 2.32053 15.9559C2.28425 15.9559 2.24834 15.9487 2.21482 15.9349C2.18131 15.921 2.15086 15.9006 2.12521 15.875C2.09957 15.8493 2.07922 15.8189 2.06534 15.7854C2.05146 15.7519 2.04431 15.716 2.04431 15.6797C2.04431 15.6434 2.05146 15.6075 2.06534 15.574C2.07922 15.5405 2.09957 15.51 2.12521 15.4844L10.1463 6.88046C10.2207 6.80038 10.2728 6.70218 10.2975 6.59566C10.3221 6.48915 10.3183 6.37804 10.2865 6.27343L7.99553 0.907024C7.99318 0.899212 7.99084 0.892179 7.9881 0.884758C7.8631 0.522648 7.5467 0.267179 7.16428 0.249992H7.12521C6.93216 0.24889 6.74323 0.305897 6.583 0.413597C6.42277 0.521299 6.29865 0.674715 6.22678 0.853899L0.313105 16.4758C0.247944 16.6448 0.233152 16.8291 0.270519 17.0064C0.307884 17.1836 0.395805 17.3463 0.523651 17.4746Z" fill="#0F801B"/>
</svg>

