<svg width="276" height="180" viewBox="0 0 276 180" fill="none" xmlns="http://www.w3.org/2000/svg">
<path d="M73.0167 24.8424C73.0167 25.7506 72.887 26.5681 72.6275 27.2947C72.3744 28.0213 72.0306 28.6312 71.5959 29.1242C71.1353 29.6367 70.6293 30.0228 70.0778 30.2823C69.5264 30.5353 68.9198 30.6618 68.258 30.6618C67.6417 30.6618 67.1032 30.5872 66.6426 30.438C66.182 30.2952 65.7279 30.1006 65.2802 29.8541L65.1634 30.3601H63.4507V15.218H65.2802V20.6287C65.7927 20.207 66.3377 19.8631 66.9151 19.5971C67.4925 19.3246 68.1413 19.1884 68.8614 19.1884C70.1459 19.1884 71.158 19.6815 71.8976 20.6676C72.6437 21.6537 73.0167 23.0453 73.0167 24.8424ZM71.1288 24.891C71.1288 23.5935 70.9147 22.6106 70.4865 21.9424C70.0584 21.2677 69.3674 20.9303 68.4137 20.9303C67.8818 20.9303 67.3433 21.0471 66.7983 21.2807C66.2534 21.5077 65.7473 21.8029 65.2802 22.1662V28.3944C65.7992 28.6279 66.2436 28.7901 66.6134 28.8809C66.9897 28.9718 67.4147 29.0172 67.8882 29.0172C68.9003 29.0172 69.6918 28.6863 70.2627 28.0246C70.8401 27.3563 71.1288 26.3118 71.1288 24.891ZM87.6625 30.3601H85.1616L79.4297 23.9082L77.9895 25.4457V30.3601H76.0627V15.87H77.9895V23.4313L85.0253 15.87H87.3609L80.8895 22.682L87.6625 30.3601ZM97.5497 30.3601H95.7299V29.2021C95.5677 29.3124 95.3471 29.4681 95.0682 29.6692C94.7957 29.8638 94.5297 30.0195 94.2702 30.1363C93.9653 30.2855 93.6149 30.4088 93.2192 30.5061C92.8235 30.6099 92.3596 30.6618 91.8276 30.6618C90.848 30.6618 90.0176 30.3374 89.3364 29.6886C88.6552 29.0399 88.3146 28.2127 88.3146 27.2071C88.3146 26.3832 88.4897 25.7182 88.84 25.2122C89.1969 24.6996 89.7029 24.2974 90.3582 24.0055C91.0199 23.7135 91.8146 23.5157 92.7424 23.4119C93.6701 23.3081 94.6659 23.2302 95.7299 23.1783V22.8961C95.7299 22.4809 95.6553 22.137 95.5061 21.8646C95.3634 21.5921 95.1558 21.378 94.8833 21.2223C94.6238 21.0731 94.3124 20.9725 93.9491 20.9206C93.5858 20.8687 93.2062 20.8428 92.8105 20.8428C92.3304 20.8428 91.7952 20.9076 91.2048 21.0374C90.6144 21.1606 90.0046 21.3423 89.3753 21.5823H89.278V19.7236C89.6348 19.6263 90.1506 19.5193 90.8253 19.4025C91.5 19.2857 92.165 19.2273 92.8202 19.2273C93.5858 19.2273 94.2507 19.2922 94.8152 19.422C95.3861 19.5452 95.8791 19.7593 96.2943 20.0642C96.7031 20.3627 97.0145 20.7487 97.2286 21.2223C97.4426 21.6959 97.5497 22.283 97.5497 22.9837V30.3601ZM95.7299 27.684V24.6575C95.172 24.6899 94.5135 24.7386 93.7544 24.8035C93.0019 24.8683 92.405 24.9624 91.9638 25.0857C91.4383 25.2349 91.0134 25.4684 90.689 25.7863C90.3646 26.0977 90.2025 26.5292 90.2025 27.0806C90.2025 27.7034 90.3906 28.1738 90.7669 28.4917C91.1432 28.8031 91.7173 28.9588 92.4893 28.9588C93.1316 28.9588 93.7187 28.8355 94.2507 28.589C94.7827 28.336 95.2758 28.0343 95.7299 27.684ZM108.838 27.2266C108.838 28.2192 108.426 29.0334 107.602 29.6692C106.785 30.305 105.666 30.6229 104.245 30.6229C103.44 30.6229 102.701 30.5288 102.026 30.3406C101.358 30.146 100.797 29.9352 100.343 29.7081V27.6548H100.44C101.017 28.0894 101.66 28.4365 102.367 28.696C103.074 28.949 103.752 29.0756 104.401 29.0756C105.205 29.0756 105.834 28.9458 106.289 28.6863C106.743 28.4268 106.97 28.0181 106.97 27.4601C106.97 27.032 106.846 26.7076 106.6 26.487C106.353 26.2664 105.88 26.0783 105.179 25.9226C104.92 25.8642 104.579 25.7961 104.157 25.7182C103.742 25.6404 103.363 25.556 103.019 25.4652C102.065 25.2122 101.387 24.8424 100.985 24.3558C100.589 23.8627 100.391 23.2594 100.391 22.5458C100.391 22.0981 100.482 21.6764 100.664 21.2807C100.852 20.8849 101.134 20.5313 101.51 20.2199C101.874 19.915 102.334 19.675 102.892 19.4998C103.457 19.3182 104.086 19.2273 104.78 19.2273C105.429 19.2273 106.084 19.3084 106.746 19.4706C107.414 19.6263 107.969 19.8177 108.41 20.0448V22.0008H108.313C107.846 21.657 107.278 21.3683 106.61 21.1347C105.941 20.8947 105.286 20.7746 104.644 20.7746C103.976 20.7746 103.411 20.9044 102.951 21.1639C102.49 21.4169 102.26 21.7964 102.26 22.3025C102.26 22.7501 102.399 23.0875 102.678 23.3145C102.951 23.5416 103.392 23.7265 104.002 23.8692C104.339 23.9471 104.715 24.0249 105.13 24.1028C105.552 24.1806 105.903 24.252 106.181 24.3169C107.031 24.5115 107.687 24.8456 108.147 25.3192C108.608 25.7993 108.838 26.4351 108.838 27.2266ZM120.555 30.3601H118.725V24.1709C118.725 23.6714 118.696 23.2043 118.638 22.7696C118.579 22.3284 118.472 21.9846 118.317 21.738C118.154 21.4656 117.921 21.2644 117.616 21.1347C117.311 20.9985 116.915 20.9303 116.429 20.9303C115.929 20.9303 115.407 21.0536 114.862 21.3001C114.317 21.5467 113.795 21.8613 113.295 22.2441V30.3601H111.466V15.218H113.295V20.6968C113.866 20.2232 114.456 19.8534 115.066 19.5874C115.676 19.3214 116.302 19.1884 116.944 19.1884C118.119 19.1884 119.014 19.542 119.63 20.2491C120.247 20.9563 120.555 21.9748 120.555 23.3048V30.3601Z" fill="#424242"/>
<path d="M192.468 70.589C192.111 70.7447 191.786 70.8907 191.494 71.0269C191.209 71.1632 190.833 71.3059 190.366 71.4551C189.97 71.5784 189.538 71.6822 189.071 71.7665C188.611 71.8574 188.101 71.9028 187.543 71.9028C186.492 71.9028 185.535 71.7568 184.673 71.4648C183.816 71.1664 183.07 70.7026 182.434 70.0733C181.812 69.4569 181.325 68.6752 180.975 67.728C180.624 66.7743 180.449 65.6682 180.449 64.4096C180.449 63.2158 180.618 62.1486 180.955 61.2079C181.293 60.2672 181.779 59.4725 182.415 58.8237C183.031 58.1944 183.774 57.7143 184.643 57.3834C185.519 57.0526 186.489 56.8871 187.553 56.8871C188.332 56.8871 189.107 56.9812 189.879 57.1694C190.657 57.3575 191.52 57.6884 192.468 58.162V60.4489H192.322C191.524 59.7806 190.732 59.2941 189.947 58.9891C189.162 58.6842 188.322 58.5318 187.427 58.5318C186.694 58.5318 186.032 58.6518 185.441 58.8918C184.858 59.1254 184.335 59.4919 183.875 59.9915C183.427 60.478 183.077 61.0944 182.824 61.8404C182.577 62.58 182.454 63.4364 182.454 64.4096C182.454 65.4281 182.59 66.3039 182.863 67.037C183.142 67.7701 183.498 68.367 183.933 68.8276C184.387 69.3077 184.916 69.6645 185.519 69.8981C186.129 70.1252 186.771 70.2387 187.446 70.2387C188.374 70.2387 189.243 70.0797 190.054 69.7618C190.865 69.444 191.624 68.9671 192.331 68.3313H192.468V70.589ZM197.012 58.9502H194.949V57.0526H197.012V58.9502ZM196.895 71.64H195.066V60.77H196.895V71.64ZM206.16 71.5427C205.816 71.6335 205.44 71.7081 205.031 71.7665C204.629 71.8249 204.269 71.8541 203.951 71.8541C202.841 71.8541 201.998 71.5557 201.42 70.9588C200.843 70.362 200.554 69.405 200.554 68.088V62.3076H199.318V60.77H200.554V57.6462H202.384V60.77H206.16V62.3076H202.384V67.2609C202.384 67.8318 202.397 68.2794 202.423 68.6038C202.449 68.9217 202.54 69.2201 202.695 69.4991C202.838 69.7586 203.033 69.95 203.279 70.0733C203.532 70.19 203.915 70.2484 204.427 70.2484C204.726 70.2484 205.037 70.2062 205.362 70.1219C205.686 70.0311 205.92 69.9565 206.062 69.8981H206.16V71.5427ZM217.682 60.77L211.337 75.6494H209.381L211.405 71.1145L207.074 60.77H209.06L212.398 68.8276L215.765 60.77H217.682ZM238.157 67.183C238.157 67.9031 238.02 68.5389 237.748 69.0904C237.475 69.6418 237.109 70.096 236.648 70.4528C236.103 70.881 235.503 71.1859 234.848 71.3675C234.199 71.5492 233.372 71.64 232.366 71.64H227.228V57.1499H231.52C232.577 57.1499 233.369 57.1888 233.894 57.2667C234.42 57.3445 234.923 57.5067 235.403 57.7532C235.935 58.0322 236.321 58.3923 236.561 58.8334C236.801 59.2681 236.921 59.7904 236.921 60.4002C236.921 61.0879 236.746 61.675 236.395 62.1616C236.045 62.6417 235.578 63.0277 234.994 63.3196V63.3975C235.974 63.5986 236.746 64.03 237.31 64.6918C237.874 65.347 238.157 66.1774 238.157 67.183ZM234.916 60.6532C234.916 60.3029 234.858 60.0077 234.741 59.7677C234.624 59.5276 234.436 59.333 234.177 59.1838C233.872 59.0086 233.502 58.9016 233.067 58.8626C232.632 58.8172 232.094 58.7945 231.452 58.7945H229.155V62.979H231.646C232.25 62.979 232.73 62.9498 233.087 62.8914C233.443 62.8266 233.774 62.6968 234.079 62.5022C234.384 62.3076 234.598 62.0578 234.721 61.7529C234.851 61.4415 234.916 61.0749 234.916 60.6532ZM236.152 67.2609C236.152 66.677 236.064 66.2131 235.889 65.8693C235.714 65.5254 235.396 65.2335 234.936 64.9934C234.624 64.8312 234.245 64.7274 233.797 64.682C233.356 64.6301 232.817 64.6042 232.182 64.6042H229.155V69.9954H231.705C232.548 69.9954 233.239 69.9532 233.778 69.8689C234.316 69.7781 234.757 69.6159 235.101 69.3823C235.464 69.1293 235.73 68.8406 235.899 68.5162C236.068 68.1918 236.152 67.7734 236.152 67.2609ZM249.192 71.64H247.372V70.482C247.21 70.5923 246.99 70.748 246.711 70.9491C246.438 71.1437 246.172 71.2994 245.913 71.4162C245.608 71.5654 245.257 71.6887 244.862 71.786C244.466 71.8898 244.002 71.9417 243.47 71.9417C242.49 71.9417 241.66 71.6173 240.979 70.9685C240.298 70.3198 239.957 69.4926 239.957 68.487C239.957 67.6631 240.132 66.9981 240.482 66.4921C240.839 65.9796 241.345 65.5773 242.001 65.2854C242.662 64.9934 243.457 64.7956 244.385 64.6918C245.313 64.588 246.308 64.5101 247.372 64.4582V64.176C247.372 63.7608 247.298 63.4169 247.149 63.1445C247.006 62.872 246.798 62.6579 246.526 62.5022C246.266 62.353 245.955 62.2524 245.591 62.2005C245.228 62.1486 244.849 62.1227 244.453 62.1227C243.973 62.1227 243.438 62.1875 242.847 62.3173C242.257 62.4406 241.647 62.6222 241.018 62.8623H240.92V61.0035C241.277 60.9062 241.793 60.7992 242.468 60.6824C243.142 60.5656 243.807 60.5072 244.463 60.5072C245.228 60.5072 245.893 60.5721 246.458 60.7019C247.028 60.8251 247.522 61.0392 247.937 61.3441C248.345 61.6426 248.657 62.0286 248.871 62.5022C249.085 62.9758 249.192 63.5629 249.192 64.2636V71.64ZM247.372 68.9639V65.9374C246.814 65.9698 246.156 66.0185 245.397 66.0834C244.644 66.1482 244.047 66.2423 243.606 66.3656C243.081 66.5148 242.656 66.7483 242.331 67.0662C242.007 67.3776 241.845 67.8091 241.845 68.3605C241.845 68.9833 242.033 69.4537 242.409 69.7716C242.786 70.083 243.36 70.2387 244.132 70.2387C244.774 70.2387 245.361 70.1154 245.893 69.8689C246.425 69.6159 246.918 69.3142 247.372 68.9639ZM261.804 71.64H259.975V65.4508C259.975 64.9513 259.945 64.4842 259.887 64.0495C259.829 63.6083 259.722 63.2645 259.566 63.018C259.404 62.7455 259.17 62.5444 258.865 62.4146C258.56 62.2784 258.165 62.2102 257.678 62.2102C257.178 62.2102 256.656 62.3335 256.111 62.58C255.566 62.8266 255.044 63.1412 254.544 63.524V71.64H252.715V60.77H254.544V61.9767C255.115 61.5031 255.706 61.1333 256.316 60.8673C256.925 60.6013 257.551 60.4683 258.194 60.4683C259.368 60.4683 260.263 60.8219 260.88 61.529C261.496 62.2362 261.804 63.2548 261.804 64.5847V71.64ZM275.195 71.64H272.781L268.421 66.8813L267.234 68.0102V71.64H265.405V56.4979H267.234V66.2099L272.518 60.77H274.825L269.774 65.7914L275.195 71.64Z" fill="#424242"/>
<path d="M110.811 117.19H108.427L101.556 104.228V117.19H99.7559V102.7H102.743L109.01 114.533V102.7H110.811V117.19ZM123.617 111.945H115.608C115.608 112.613 115.709 113.197 115.91 113.696C116.111 114.19 116.387 114.595 116.737 114.913C117.075 115.224 117.474 115.458 117.934 115.614C118.401 115.769 118.914 115.847 119.472 115.847C120.211 115.847 120.954 115.701 121.7 115.409C122.453 115.111 122.988 114.819 123.306 114.533H123.403V116.528C122.787 116.788 122.158 117.005 121.515 117.18C120.873 117.355 120.198 117.443 119.491 117.443C117.688 117.443 116.28 116.957 115.268 115.983C114.256 115.004 113.75 113.615 113.75 111.818C113.75 110.041 114.233 108.63 115.2 107.585C116.173 106.541 117.451 106.018 119.034 106.018C120.5 106.018 121.629 106.447 122.42 107.303C123.218 108.159 123.617 109.376 123.617 110.952V111.945ZM121.837 110.543C121.83 109.583 121.587 108.84 121.107 108.315C120.633 107.789 119.91 107.527 118.937 107.527C117.957 107.527 117.175 107.815 116.591 108.393C116.014 108.97 115.686 109.687 115.608 110.543H121.837ZM135.801 117.19H133.495L130.41 113.015L127.306 117.19H125.174L129.417 111.77L125.213 106.32H127.52L130.585 110.427L133.66 106.32H135.801L131.529 111.672L135.801 117.19ZM147.197 117.19H145.367V115.983C144.751 116.47 144.16 116.843 143.596 117.102C143.032 117.362 142.409 117.492 141.728 117.492C140.586 117.492 139.697 117.145 139.061 116.45C138.425 115.75 138.107 114.725 138.107 113.375V106.32H139.937V112.509C139.937 113.061 139.963 113.534 140.015 113.93C140.067 114.319 140.177 114.653 140.346 114.932C140.521 115.218 140.748 115.425 141.027 115.555C141.306 115.685 141.711 115.75 142.243 115.75C142.717 115.75 143.233 115.627 143.791 115.38C144.355 115.133 144.881 114.819 145.367 114.436V106.32H147.197V117.19ZM158.563 114.057C158.563 115.049 158.151 115.863 157.327 116.499C156.51 117.135 155.391 117.453 153.97 117.453C153.165 117.453 152.426 117.359 151.751 117.171C151.083 116.976 150.522 116.765 150.067 116.538V114.485H150.165C150.742 114.919 151.384 115.266 152.092 115.526C152.799 115.779 153.477 115.906 154.125 115.906C154.93 115.906 155.559 115.776 156.013 115.516C156.467 115.257 156.695 114.848 156.695 114.29C156.695 113.862 156.571 113.538 156.325 113.317C156.078 113.096 155.605 112.908 154.904 112.753C154.644 112.694 154.304 112.626 153.882 112.548C153.467 112.47 153.087 112.386 152.744 112.295C151.79 112.042 151.112 111.672 150.71 111.186C150.314 110.693 150.116 110.089 150.116 109.376C150.116 108.928 150.207 108.506 150.389 108.111C150.577 107.715 150.859 107.361 151.235 107.05C151.599 106.745 152.059 106.505 152.617 106.33C153.181 106.148 153.811 106.057 154.505 106.057C155.154 106.057 155.809 106.138 156.471 106.301C157.139 106.456 157.694 106.648 158.135 106.875V108.831H158.037C157.57 108.487 157.003 108.198 156.334 107.965C155.666 107.725 155.011 107.605 154.369 107.605C153.701 107.605 153.136 107.734 152.675 107.994C152.215 108.247 151.985 108.626 151.985 109.132C151.985 109.58 152.124 109.917 152.403 110.144C152.675 110.372 153.117 110.556 153.726 110.699C154.064 110.777 154.44 110.855 154.855 110.933C155.277 111.011 155.627 111.082 155.906 111.147C156.756 111.341 157.411 111.676 157.872 112.149C158.333 112.629 158.563 113.265 158.563 114.057ZM177.822 107.079C177.822 107.721 177.708 108.318 177.481 108.87C177.26 109.415 176.949 109.888 176.547 110.29C176.047 110.79 175.457 111.166 174.776 111.419C174.094 111.666 173.235 111.789 172.197 111.789H170.27V117.19H168.343V102.7H172.275C173.144 102.7 173.88 102.775 174.484 102.924C175.087 103.066 175.622 103.294 176.089 103.605C176.641 103.975 177.066 104.435 177.364 104.987C177.669 105.538 177.822 106.236 177.822 107.079ZM175.817 107.128C175.817 106.628 175.729 106.194 175.554 105.824C175.379 105.454 175.113 105.152 174.756 104.919C174.445 104.718 174.088 104.575 173.686 104.491C173.29 104.4 172.787 104.354 172.177 104.354H170.27V110.144H171.895C172.674 110.144 173.306 110.076 173.793 109.94C174.279 109.797 174.675 109.574 174.98 109.269C175.285 108.957 175.499 108.63 175.622 108.286C175.752 107.942 175.817 107.556 175.817 107.128ZM188.186 117.19H186.366V116.032C186.204 116.142 185.983 116.298 185.704 116.499C185.432 116.694 185.166 116.849 184.906 116.966C184.601 117.115 184.251 117.239 183.855 117.336C183.459 117.44 182.995 117.492 182.463 117.492C181.484 117.492 180.653 117.167 179.972 116.519C179.291 115.87 178.95 115.043 178.95 114.037C178.95 113.213 179.126 112.548 179.476 112.042C179.833 111.53 180.339 111.127 180.994 110.835C181.656 110.543 182.45 110.346 183.378 110.242C184.306 110.138 185.302 110.06 186.366 110.008V109.726C186.366 109.311 186.291 108.967 186.142 108.695C185.999 108.422 185.792 108.208 185.519 108.052C185.26 107.903 184.948 107.802 184.585 107.751C184.222 107.699 183.842 107.673 183.446 107.673C182.966 107.673 182.431 107.738 181.841 107.867C181.25 107.991 180.64 108.172 180.011 108.412H179.914V106.554C180.271 106.456 180.786 106.349 181.461 106.232C182.136 106.116 182.801 106.057 183.456 106.057C184.222 106.057 184.887 106.122 185.451 106.252C186.022 106.375 186.515 106.589 186.93 106.894C187.339 107.193 187.65 107.579 187.864 108.052C188.078 108.526 188.186 109.113 188.186 109.814V117.19ZM186.366 114.514V111.487C185.808 111.52 185.149 111.569 184.39 111.633C183.638 111.698 183.041 111.792 182.6 111.916C182.074 112.065 181.649 112.298 181.325 112.616C181 112.928 180.838 113.359 180.838 113.911C180.838 114.533 181.026 115.004 181.403 115.322C181.779 115.633 182.353 115.789 183.125 115.789C183.767 115.789 184.355 115.665 184.887 115.419C185.419 115.166 185.912 114.864 186.366 114.514ZM200.953 106.32L194.608 121.199H192.652L194.676 116.665L190.346 106.32H192.331L195.669 114.378L199.036 106.32H200.953Z" fill="#424242"/>
<path d="M92.0683 151.24C92.0683 152.557 91.7796 153.75 91.2022 154.821C90.6313 155.891 89.869 156.722 88.9153 157.312C88.2536 157.721 87.514 158.016 86.6966 158.198C85.8856 158.379 84.8152 158.47 83.4852 158.47H79.8262V143.98H83.4463C84.8606 143.98 85.9829 144.084 86.8133 144.291C87.6503 144.492 88.3574 144.771 88.9348 145.128C89.9209 145.745 90.6897 146.565 91.2412 147.59C91.7926 148.615 92.0683 149.832 92.0683 151.24ZM90.0539 151.21C90.0539 150.075 89.856 149.118 89.4603 148.34C89.0646 147.561 88.4742 146.948 87.6892 146.5C87.1183 146.176 86.5117 145.952 85.8694 145.829C85.2271 145.699 84.4583 145.634 83.563 145.634H81.753V156.816H83.563C84.4908 156.816 85.2985 156.748 85.9862 156.611C86.6804 156.475 87.3161 156.222 87.8935 155.852C88.6137 155.392 89.1521 154.785 89.509 154.033C89.8723 153.28 90.0539 152.339 90.0539 151.21ZM106.111 154.013C106.111 154.733 105.975 155.369 105.702 155.92C105.43 156.472 105.063 156.926 104.602 157.283C104.057 157.711 103.457 158.016 102.802 158.198C102.153 158.379 101.326 158.47 100.321 158.47H95.1824V143.98H99.474C100.531 143.98 101.323 144.019 101.848 144.097C102.374 144.175 102.877 144.337 103.357 144.583C103.889 144.862 104.275 145.222 104.515 145.664C104.755 146.098 104.875 146.62 104.875 147.23C104.875 147.918 104.7 148.505 104.349 148.992C103.999 149.472 103.532 149.858 102.948 150.15V150.228C103.928 150.429 104.7 150.86 105.264 151.522C105.829 152.177 106.111 153.008 106.111 154.013ZM102.87 147.483C102.87 147.133 102.812 146.838 102.695 146.598C102.578 146.358 102.39 146.163 102.131 146.014C101.826 145.839 101.456 145.732 101.021 145.693C100.587 145.647 100.048 145.625 99.4058 145.625H97.1092V149.809H99.6005C100.204 149.809 100.684 149.78 101.041 149.722C101.398 149.657 101.728 149.527 102.033 149.332C102.338 149.138 102.552 148.888 102.676 148.583C102.805 148.272 102.87 147.905 102.87 147.483ZM104.106 154.091C104.106 153.507 104.019 153.043 103.843 152.699C103.668 152.356 103.35 152.064 102.89 151.824C102.578 151.661 102.199 151.558 101.751 151.512C101.31 151.46 100.771 151.434 100.136 151.434H97.1092V156.825H99.6589C100.502 156.825 101.193 156.783 101.732 156.699C102.27 156.608 102.711 156.446 103.055 156.212C103.418 155.959 103.684 155.671 103.853 155.346C104.022 155.022 104.106 154.603 104.106 154.091ZM119.774 154.013C119.774 154.733 119.638 155.369 119.365 155.92C119.093 156.472 118.726 156.926 118.265 157.283C117.72 157.711 117.12 158.016 116.465 158.198C115.816 158.379 114.989 158.47 113.984 158.47H108.845V143.98H113.137C114.194 143.98 114.986 144.019 115.511 144.097C116.037 144.175 116.54 144.337 117.02 144.583C117.552 144.862 117.938 145.222 118.178 145.664C118.418 146.098 118.538 146.62 118.538 147.23C118.538 147.918 118.363 148.505 118.012 148.992C117.662 149.472 117.195 149.858 116.611 150.15V150.228C117.591 150.429 118.363 150.86 118.927 151.522C119.492 152.177 119.774 153.008 119.774 154.013ZM116.533 147.483C116.533 147.133 116.475 146.838 116.358 146.598C116.241 146.358 116.053 146.163 115.794 146.014C115.489 145.839 115.119 145.732 114.684 145.693C114.25 145.647 113.711 145.625 113.069 145.625H110.772V149.809H113.263C113.867 149.809 114.347 149.78 114.704 149.722C115.06 149.657 115.391 149.527 115.696 149.332C116.001 149.138 116.215 148.888 116.339 148.583C116.468 148.272 116.533 147.905 116.533 147.483ZM117.769 154.091C117.769 153.507 117.681 153.043 117.506 152.699C117.331 152.356 117.013 152.064 116.553 151.824C116.241 151.661 115.862 151.558 115.414 151.512C114.973 151.46 114.434 151.434 113.799 151.434H110.772V156.825H113.322C114.165 156.825 114.856 156.783 115.395 156.699C115.933 156.608 116.374 156.446 116.718 156.212C117.081 155.959 117.347 155.671 117.516 155.346C117.685 155.022 117.769 154.603 117.769 154.091ZM131.675 158.47H122.508V143.98H124.435V156.757H131.675V158.47Z" fill="#424242"/>
<path fill-rule="evenodd" clip-rule="evenodd" d="M14.8096 81.31V52.49H165.48V81.31H14.8096Z" fill="#EB5244"/>
<path fill-rule="evenodd" clip-rule="evenodd" d="M14.8096 123.6V94.78H83.4796V123.6H14.8096Z" fill="#263268"/>
<path fill-rule="evenodd" clip-rule="evenodd" d="M14.8096 165.88V137.06H63.1396V165.88H14.8096Z" fill="#FCAE28"/>
<path fill-rule="evenodd" clip-rule="evenodd" d="M14.8096 39.0301V10.2101H46.9596V39.0301H14.8096Z" fill="#889DFF"/>
<path d="M126.43 48.3201H164.39" stroke="#F0FAFA" stroke-width="2" stroke-miterlimit="10" stroke-linecap="round"/>
<path d="M88.4805 95.28V123.26" stroke="#F0FAFA" stroke-width="2" stroke-miterlimit="10" stroke-linecap="round"/>
<path d="M200.44 179.23H0V2.14C0 1.57244 0.225457 1.02813 0.626785 0.626801C1.02811 0.225473 1.57244 0 2.14 0C2.70756 0 3.25187 0.225473 3.6532 0.626801C4.05453 1.02813 4.28 1.57244 4.28 2.14V174.96H200.44" fill="#083552"/>
</svg>
