<svg width="17" height="12" viewBox="0 0 17 12" fill="none" xmlns="http://www.w3.org/2000/svg">
<path d="M9.99375 11.3688C10.4812 11.8563 11.2688 11.8563 11.7563 11.3688L16.2412 6.88375C16.4756 6.64934 16.6072 6.33146 16.6072 6C16.6072 5.66855 16.4756 5.35066 16.2412 5.11625L11.7563 0.631254C11.5186 0.416495 11.2076 0.301245 10.8874 0.309328C10.5672 0.31741 10.2624 0.448207 10.0359 0.67468C9.80945 0.901154 9.67866 1.20599 9.67057 1.52617C9.66249 1.84635 9.77774 2.15739 9.9925 2.395L12.3375 4.75H1.5C1.16848 4.75 0.850537 4.8817 0.616117 5.11612C0.381696 5.35054 0.25 5.66848 0.25 6C0.25 6.33152 0.381696 6.64947 0.616117 6.88389C0.850537 7.11831 1.16848 7.25 1.5 7.25H12.3375L9.9925 9.605C9.75917 9.83926 9.62826 10.1565 9.6285 10.4871C9.62873 10.8178 9.76009 11.1348 9.99375 11.3688Z" fill="white"/>
</svg>
