<svg width="18" height="18" viewBox="0 0 18 18" fill="none" xmlns="http://www.w3.org/2000/svg">
<path d="M17.4763 0.525398C17.3485 0.397618 17.1865 0.309504 17.0098 0.271664C16.8331 0.233824 16.6492 0.247872 16.4803 0.312117L0.854082 6.22657H0.850957C0.670786 6.29587 0.516398 6.41909 0.40888 6.57942C0.301362 6.73974 0.245956 6.92934 0.25023 7.12234C0.254503 7.31533 0.318248 7.50229 0.432757 7.6577C0.547266 7.81311 0.706957 7.92938 0.89002 7.99063L0.906035 7.99571L6.26932 10.2859C6.37393 10.3177 6.48503 10.3215 6.59155 10.2969C6.69807 10.2722 6.79627 10.2201 6.87635 10.1457L15.4842 2.12501C15.5098 2.09936 15.5403 2.07901 15.5738 2.06513C15.6073 2.05125 15.6432 2.04411 15.6795 2.04411C15.7157 2.04411 15.7517 2.05125 15.7852 2.06513C15.8187 2.07901 15.8491 2.09936 15.8748 2.12501C15.9004 2.15066 15.9208 2.18111 15.9347 2.21462C15.9485 2.24813 15.9557 2.28405 15.9557 2.32032C15.9557 2.35659 15.9485 2.39251 15.9347 2.42602C15.9208 2.45953 15.9004 2.48998 15.8748 2.51563L7.85369 11.1195C7.77927 11.1996 7.72715 11.2978 7.70255 11.4043C7.67794 11.5109 7.6817 11.622 7.71346 11.7266L10.0045 17.093C10.0068 17.1008 10.0092 17.1078 10.0119 17.1152C10.1369 17.4774 10.4533 17.7328 10.8357 17.75H10.8748C11.0678 17.7511 11.2568 17.6941 11.417 17.5864C11.5772 17.4787 11.7013 17.3253 11.7732 17.1461L17.6869 1.52423C17.7521 1.35519 17.7668 1.1709 17.7295 0.993644C17.6921 0.816383 17.6042 0.653745 17.4763 0.525398Z" fill="#D32F2F" fill-opacity="0.9"/>
</svg>

