<svg width="287" height="194" viewBox="0 0 287 194" fill="none" xmlns="http://www.w3.org/2000/svg">
<path d="M152.04 164.511H152.709V90.2352H77.123C77.3031 109.996 85.2754 128.886 99.3054 142.796C113.336 156.706 132.288 164.51 152.04 164.511Z" fill="#263268"/>
<path d="M88.207 138.656C95.9465 148.11 105.69 155.725 116.732 160.95C127.775 166.174 139.84 168.878 152.055 168.864H152.797" stroke="#889DFF" stroke-width="2" stroke-miterlimit="10" stroke-linecap="round"/>
<path d="M162.746 82.1614V156.438C174.869 156.327 186.783 153.276 197.467 147.545C208.151 141.815 217.286 133.576 224.087 123.536C230.889 113.497 235.154 101.956 236.516 89.9044C237.878 77.8529 236.297 65.6507 231.909 54.345C227.52 43.0393 220.455 32.9678 211.32 24.9948C202.184 17.0219 191.252 11.3857 179.46 8.5699C167.669 5.75412 155.371 5.84287 143.621 8.82855C131.871 11.8142 121.021 17.6076 112.002 25.7116L162.746 82.1614Z" fill="#EB5244"/>
<path d="M241.382 81.493C241.382 60.2178 232.935 39.814 217.898 24.7702C202.861 9.72632 182.467 1.27478 161.201 1.27478" stroke="#889DFF" stroke-width="2" stroke-miterlimit="10" stroke-linecap="round"/>
<path d="M68.4141 76.3605C68.4141 76.5833 68.4141 76.8061 68.4141 77.0289H142.998L93.2555 20.5791C85.4246 27.6046 79.1642 36.2047 74.8835 45.817C70.6028 55.4293 68.3983 65.8373 68.4141 76.3605Z" fill="#FCAE28"/>
<path d="M82.7548 25.6503C71.0824 41.0769 65.0775 57.831 65.1481 74.7743C65.1481 75.1266 65.1481 75.4789 65.1481 75.8312" stroke="#889DFF" stroke-width="2" stroke-miterlimit="10" stroke-linecap="round"/>
<path d="M242.993 20.0898H240.403V25H238.153V20.0898H229.798V17.3945L238.247 7.55078H240.403V18.2148H242.993V20.0898ZM238.153 18.2148V10.3398L231.392 18.2148H238.153ZM257.712 19.457C257.712 20.2695 257.563 21.0469 257.267 21.7891C256.97 22.5312 256.563 23.1562 256.048 23.6641C255.485 24.2109 254.813 24.6328 254.032 24.9297C253.259 25.2188 252.36 25.3633 251.337 25.3633C250.384 25.3633 249.466 25.2617 248.583 25.0586C247.7 24.8633 246.954 24.625 246.345 24.3438V21.8711H246.509C247.149 22.2773 247.899 22.625 248.759 22.9141C249.618 23.1953 250.462 23.3359 251.29 23.3359C251.845 23.3359 252.38 23.2578 252.896 23.1016C253.419 22.9453 253.884 22.6719 254.29 22.2812C254.634 21.9453 254.892 21.543 255.063 21.0742C255.243 20.6055 255.333 20.0625 255.333 19.4453C255.333 18.8438 255.228 18.3359 255.017 17.9219C254.813 17.5078 254.528 17.1758 254.161 16.9258C253.755 16.6289 253.259 16.4219 252.673 16.3047C252.095 16.1797 251.446 16.1172 250.728 16.1172C250.04 16.1172 249.376 16.1641 248.735 16.2578C248.103 16.3516 247.556 16.4453 247.095 16.5391V7.55078H257.595V9.60156H249.356V14.2422C249.692 14.2109 250.036 14.1875 250.388 14.1719C250.739 14.1562 251.044 14.1484 251.302 14.1484C252.247 14.1484 253.075 14.2305 253.786 14.3945C254.497 14.5508 255.149 14.832 255.743 15.2383C256.368 15.668 256.853 16.2227 257.196 16.9023C257.54 17.582 257.712 18.4336 257.712 19.457ZM269.771 12.3906C269.771 14.1406 269.399 15.4414 268.657 16.293C267.923 17.1445 266.86 17.5703 265.47 17.5703C264.048 17.5703 262.974 17.1445 262.247 16.293C261.521 15.4414 261.157 14.1445 261.157 12.4023C261.157 10.6523 261.528 9.35156 262.271 8.5C263.013 7.64844 264.079 7.22266 265.47 7.22266C266.884 7.22266 267.954 7.65234 268.681 8.51172C269.407 9.37109 269.771 10.6641 269.771 12.3906ZM277.868 7.55078L268.728 25H266.794L275.935 7.55078H277.868ZM283.493 20.1602C283.493 21.9102 283.122 23.2109 282.38 24.0625C281.638 24.9141 280.571 25.3398 279.181 25.3398C277.767 25.3398 276.696 24.9102 275.97 24.0508C275.243 23.1914 274.88 21.8984 274.88 20.1719C274.88 18.4219 275.247 17.1211 275.981 16.2695C276.724 15.418 277.79 14.9922 279.181 14.9922C280.603 14.9922 281.677 15.418 282.403 16.2695C283.13 17.1211 283.493 18.418 283.493 20.1602ZM267.685 12.3906C267.685 11.0469 267.509 10.1094 267.157 9.57812C266.813 9.04688 266.251 8.78125 265.47 8.78125C264.673 8.78125 264.103 9.04688 263.759 9.57812C263.415 10.1094 263.243 11.0508 263.243 12.4023C263.243 13.7539 263.415 14.6953 263.759 15.2266C264.103 15.75 264.673 16.0117 265.47 16.0117C266.251 16.0117 266.813 15.75 267.157 15.2266C267.509 14.6953 267.685 13.75 267.685 12.3906ZM281.407 20.1602C281.407 18.8164 281.231 17.8789 280.88 17.3477C280.536 16.8164 279.974 16.5508 279.192 16.5508C278.396 16.5508 277.825 16.8164 277.481 17.3477C277.138 17.8789 276.966 18.8203 276.966 20.1719C276.966 21.5234 277.138 22.4648 277.481 22.9961C277.825 23.5195 278.396 23.7812 279.192 23.7812C279.974 23.7812 280.536 23.5195 280.88 22.9961C281.231 22.4648 281.407 21.5195 281.407 20.1602Z" fill="#424242"/>
<path d="M84.5273 188.24H81.9375V193.15H79.6875V188.24H71.332V185.545L79.7812 175.701H81.9375V186.365H84.5273V188.24ZM79.6875 186.365V178.49L72.9258 186.365H79.6875ZM99.2461 187.607C99.2461 188.42 99.0977 189.197 98.8008 189.939C98.5039 190.682 98.0977 191.307 97.582 191.814C97.0195 192.361 96.3477 192.783 95.5664 193.08C94.793 193.369 93.8945 193.514 92.8711 193.514C91.918 193.514 91 193.412 90.1172 193.209C89.2344 193.014 88.4883 192.775 87.8789 192.494V190.021H88.043C88.6836 190.428 89.4336 190.775 90.293 191.064C91.1523 191.346 91.9961 191.486 92.8242 191.486C93.3789 191.486 93.9141 191.408 94.4297 191.252C94.9531 191.096 95.418 190.822 95.8242 190.432C96.168 190.096 96.4258 189.693 96.5977 189.224C96.7773 188.756 96.8672 188.213 96.8672 187.596C96.8672 186.994 96.7617 186.486 96.5508 186.072C96.3477 185.658 96.0625 185.326 95.6953 185.076C95.2891 184.779 94.793 184.572 94.207 184.455C93.6289 184.33 92.9805 184.267 92.2617 184.267C91.5742 184.267 90.9102 184.314 90.2695 184.408C89.6367 184.502 89.0898 184.596 88.6289 184.689V175.701H99.1289V177.752H90.8906V182.392C91.2266 182.361 91.5703 182.338 91.9219 182.322C92.2734 182.307 92.5781 182.299 92.8359 182.299C93.7812 182.299 94.6094 182.381 95.3203 182.545C96.0312 182.701 96.6836 182.982 97.2773 183.389C97.9023 183.818 98.3867 184.373 98.7305 185.053C99.0742 185.732 99.2461 186.584 99.2461 187.607ZM111.305 180.541C111.305 182.291 110.934 183.592 110.191 184.443C109.457 185.295 108.395 185.721 107.004 185.721C105.582 185.721 104.508 185.295 103.781 184.443C103.055 183.592 102.691 182.295 102.691 180.553C102.691 178.803 103.062 177.502 103.805 176.65C104.547 175.799 105.613 175.373 107.004 175.373C108.418 175.373 109.488 175.803 110.215 176.662C110.941 177.521 111.305 178.814 111.305 180.541ZM119.402 175.701L110.262 193.15H108.328L117.469 175.701H119.402ZM125.027 188.31C125.027 190.06 124.656 191.361 123.914 192.213C123.172 193.064 122.105 193.49 120.715 193.49C119.301 193.49 118.23 193.06 117.504 192.201C116.777 191.342 116.414 190.049 116.414 188.322C116.414 186.572 116.781 185.271 117.516 184.42C118.258 183.568 119.324 183.142 120.715 183.142C122.137 183.142 123.211 183.568 123.938 184.42C124.664 185.271 125.027 186.568 125.027 188.31ZM109.219 180.541C109.219 179.197 109.043 178.26 108.691 177.728C108.348 177.197 107.785 176.932 107.004 176.932C106.207 176.932 105.637 177.197 105.293 177.728C104.949 178.26 104.777 179.201 104.777 180.553C104.777 181.904 104.949 182.846 105.293 183.377C105.637 183.9 106.207 184.162 107.004 184.162C107.785 184.162 108.348 183.9 108.691 183.377C109.043 182.846 109.219 181.9 109.219 180.541ZM122.941 188.31C122.941 186.967 122.766 186.029 122.414 185.498C122.07 184.967 121.508 184.701 120.727 184.701C119.93 184.701 119.359 184.967 119.016 185.498C118.672 186.029 118.5 186.971 118.5 188.322C118.5 189.674 118.672 190.615 119.016 191.146C119.359 191.67 119.93 191.932 120.727 191.932C121.508 191.932 122.07 191.67 122.414 191.146C122.766 190.615 122.941 189.67 122.941 188.31Z" fill="#424242"/>
<path d="M12.7031 63.7362H3.25781V61.955H6.89062V50.2596H3.25781V48.6659C3.75 48.6659 4.27734 48.6268 4.83984 48.5487C5.40234 48.4628 5.82812 48.3417 6.11719 48.1854C6.47656 47.9901 6.75781 47.744 6.96094 47.4471C7.17188 47.1425 7.29297 46.7362 7.32422 46.2284H9.14062V61.955H12.7031V63.7362ZM28.9336 55.0057C28.9336 58.1385 28.4414 60.4393 27.457 61.9081C26.4805 63.369 24.9609 64.0995 22.8984 64.0995C20.8047 64.0995 19.2734 63.3573 18.3047 61.8729C17.3438 60.3885 16.8633 58.1073 16.8633 55.0292C16.8633 51.9276 17.3516 49.6385 18.3281 48.162C19.3047 46.6776 20.8281 45.9354 22.8984 45.9354C24.9922 45.9354 26.5195 46.6893 27.4805 48.1971C28.4492 49.6971 28.9336 51.9667 28.9336 55.0057ZM25.8516 60.326C26.125 59.6932 26.3086 58.951 26.4023 58.0995C26.5039 57.2401 26.5547 56.2089 26.5547 55.0057C26.5547 53.8182 26.5039 52.787 26.4023 51.912C26.3086 51.037 26.1211 50.2948 25.8398 49.6854C25.5664 49.0839 25.1914 48.6307 24.7148 48.326C24.2461 48.0214 23.6406 47.869 22.8984 47.869C22.1641 47.869 21.5547 48.0214 21.0703 48.326C20.5938 48.6307 20.2148 49.0917 19.9336 49.7089C19.668 50.287 19.4844 51.0409 19.3828 51.9706C19.2891 52.9003 19.2422 53.9198 19.2422 55.0292C19.2422 56.2479 19.2852 57.2675 19.3711 58.0878C19.457 58.9081 19.6406 59.6425 19.9219 60.2909C20.1797 60.9003 20.543 61.3651 21.0117 61.6854C21.4883 62.0057 22.1172 62.1659 22.8984 62.1659C23.6328 62.1659 24.2422 62.0135 24.7266 61.7089C25.2109 61.4042 25.5859 60.9432 25.8516 60.326ZM40.875 51.1268C40.875 52.8768 40.5039 54.1776 39.7617 55.0292C39.0273 55.8807 37.9648 56.3065 36.5742 56.3065C35.1523 56.3065 34.0781 55.8807 33.3516 55.0292C32.625 54.1776 32.2617 52.8807 32.2617 51.1385C32.2617 49.3885 32.6328 48.0878 33.375 47.2362C34.1172 46.3846 35.1836 45.9589 36.5742 45.9589C37.9883 45.9589 39.0586 46.3885 39.7852 47.2479C40.5117 48.1073 40.875 49.4003 40.875 51.1268ZM48.9727 46.287L39.832 63.7362H37.8984L47.0391 46.287H48.9727ZM54.5977 58.8964C54.5977 60.6464 54.2266 61.9471 53.4844 62.7987C52.7422 63.6503 51.6758 64.076 50.2852 64.076C48.8711 64.076 47.8008 63.6464 47.0742 62.787C46.3477 61.9276 45.9844 60.6346 45.9844 58.9081C45.9844 57.1581 46.3516 55.8573 47.0859 55.0057C47.8281 54.1542 48.8945 53.7284 50.2852 53.7284C51.707 53.7284 52.7812 54.1542 53.5078 55.0057C54.2344 55.8573 54.5977 57.1542 54.5977 58.8964ZM38.7891 51.1268C38.7891 49.7831 38.6133 48.8456 38.2617 48.3143C37.918 47.7831 37.3555 47.5175 36.5742 47.5175C35.7773 47.5175 35.207 47.7831 34.8633 48.3143C34.5195 48.8456 34.3477 49.787 34.3477 51.1385C34.3477 52.4901 34.5195 53.4315 34.8633 53.9628C35.207 54.4862 35.7773 54.7479 36.5742 54.7479C37.3555 54.7479 37.918 54.4862 38.2617 53.9628C38.6133 53.4315 38.7891 52.4862 38.7891 51.1268ZM52.5117 58.8964C52.5117 57.5526 52.3359 56.6151 51.9844 56.0839C51.6406 55.5526 51.0781 55.287 50.2969 55.287C49.5 55.287 48.9297 55.5526 48.5859 56.0839C48.2422 56.6151 48.0703 57.5565 48.0703 58.9081C48.0703 60.2596 48.2422 61.201 48.5859 61.7323C48.9297 62.2557 49.5 62.5175 50.2969 62.5175C51.0781 62.5175 51.6406 62.2557 51.9844 61.7323C52.3359 61.201 52.5117 60.2557 52.5117 58.8964Z" fill="#424242"/>
</svg>
