<svg width="28" height="28" viewBox="0 0 28 28" fill="none" xmlns="http://www.w3.org/2000/svg">
<path d="M14 0.875C10.532 0.91684 7.21789 2.31308 4.76549 4.76549C2.31308 7.21789 0.91684 10.532 0.875 14C0.91684 17.468 2.31308 20.7821 4.76549 23.2345C7.21789 25.6869 10.532 27.0832 14 27.125C17.468 27.0832 20.7821 25.6869 23.2345 23.2345C25.6869 20.7821 27.0832 17.468 27.125 14C27.0832 10.532 25.6869 7.21789 23.2345 4.76549C20.7821 2.31308 17.468 0.91684 14 0.875ZM21.5 14.9375H14.9375V21.5H13.0625V14.9375H6.5V13.0625H13.0625V6.5H14.9375V13.0625H21.5V14.9375Z" fill="#506DF5"/>
</svg>

