<svg width="19" height="19" viewBox="0 0 19 19" fill="none" xmlns="http://www.w3.org/2000/svg">
<path d="M18.5729 17.0938L15.0313 13.5625C16.1739 12.1067 16.794 10.309 16.7917 8.45834C16.7917 6.81016 16.3029 5.199 15.3872 3.82859C14.4716 2.45818 13.1701 1.39007 11.6474 0.759341C10.1246 0.128611 8.44909 -0.0364171 6.83258 0.285126C5.21608 0.60667 3.73122 1.40034 2.56578 2.56578C1.40034 3.73122 0.60667 5.21608 0.285126 6.83259C-0.0364171 8.44909 0.128611 10.1246 0.759341 11.6474C1.39007 13.1701 2.45818 14.4716 3.82858 15.3873C5.19899 16.3029 6.81016 16.7917 8.45834 16.7917C10.309 16.794 12.1067 16.1739 13.5625 15.0313L17.0938 18.5729C17.1906 18.6706 17.3058 18.7481 17.4327 18.8009C17.5597 18.8538 17.6958 18.881 17.8333 18.881C17.9708 18.881 18.107 18.8538 18.2339 18.8009C18.3609 18.7481 18.4761 18.6706 18.5729 18.5729C18.6706 18.4761 18.748 18.3609 18.8009 18.2339C18.8538 18.107 18.881 17.9709 18.881 17.8333C18.881 17.6958 18.8538 17.5597 18.8009 17.4327C18.748 17.3058 18.6706 17.1906 18.5729 17.0938ZM2.20834 8.45834C2.20834 7.2222 2.57489 6.01383 3.26165 4.98602C3.94841 3.95822 4.92453 3.15714 6.06657 2.68409C7.2086 2.21104 8.46527 2.08727 9.67765 2.32843C10.89 2.56959 12.0037 3.16484 12.8778 4.03892C13.7518 4.913 14.3471 6.02664 14.5882 7.23902C14.8294 8.4514 14.7056 9.70807 14.2326 10.8501C13.7595 11.9921 12.9585 12.9683 11.9307 13.655C10.9028 14.3418 9.69447 14.7083 8.45834 14.7083C6.80073 14.7083 5.21102 14.0499 4.03892 12.8778C2.86682 11.7057 2.20834 10.1159 2.20834 8.45834Z" fill="#506DF5"/>
</svg>
