<?xml version="1.0"?>
<svg xmlns="http://www.w3.org/2000/svg" xmlns:xlink="http://www.w3.org/1999/xlink" xmlns:svgjs="http://svgjs.com/svgjs" version="1.1" width="512" height="512" x="0" y="0" viewBox="0 0 612.003 612.003" style="enable-background:new 0 0 512 512" xml:space="preserve" class=""><g transform="matrix(0.9800000000000002,0,0,0.9800000000000002,6.120030784606968,6.120009384155253)">
<g xmlns="http://www.w3.org/2000/svg">
	<path d="M611.709,275.604c0,0-17.354-230.396-274.292-230.396c0,0-24.132-0.063-55.915,7.316   c-13.202,2.702-25.626,6.228-37.258,10.335C203.1,46.272,126.59,78.53,126.59,78.53c-62.871,28.347-8.772,49.036-8.772,49.036   c5.766,1.848,11.113,3.854,16.082,5.987c-9.759,9.322-14.518,16.246-14.55,16.234c-18.759,24.41-33.866,55.112-42.327,92.224   c0,0-3.468,27.334-27.771,27.334H17.994c0,0-21.98-1.316-17.354,29.144l9.835,87.895c0,0,4.633,23.309,23.727,23.309   c0,0,43.448-0.639,83.528,16.613c26.474-12.474,33.644-37.252,33.954-38.378c2.253-8.12,10.651-12.999,18.803-10.81   c8.145,2.196,13.018,10.468,10.892,18.632c-0.373,1.443-8.702,28.36-34.638,48.042c18.987,15.063,34.954,36.695,34.954,67.921   v55.08h87.446l32.404-59.915c0,0,48.03,9.335,101.274-4l39.346,63.915h93.945v-81.092c0,0-1.747-40.226,28.543-78.706   C564.648,406.997,616.342,343.519,611.709,275.604z M126.584,265.32c-9.152,0-16.582-8.133-16.582-18.176   c0-10.05,7.43-18.189,16.582-18.189c9.158,0,16.588,8.139,16.588,18.189C143.172,257.187,135.742,265.32,126.584,265.32z    M416.388,142.774H302.469c-6.987,0-12.658-5.664-12.658-12.658c0-6.987,5.671-12.658,12.658-12.658h113.919   c6.993,0,12.658,5.671,12.658,12.658C429.046,137.11,423.376,142.774,416.388,142.774z" fill="#ffffff" data-original="#000000" style="" class=""/>
</g>
<g xmlns="http://www.w3.org/2000/svg">
</g>
<g xmlns="http://www.w3.org/2000/svg">
</g>
<g xmlns="http://www.w3.org/2000/svg">
</g>
<g xmlns="http://www.w3.org/2000/svg">
</g>
<g xmlns="http://www.w3.org/2000/svg">
</g>
<g xmlns="http://www.w3.org/2000/svg">
</g>
<g xmlns="http://www.w3.org/2000/svg">
</g>
<g xmlns="http://www.w3.org/2000/svg">
</g>
<g xmlns="http://www.w3.org/2000/svg">
</g>
<g xmlns="http://www.w3.org/2000/svg">
</g>
<g xmlns="http://www.w3.org/2000/svg">
</g>
<g xmlns="http://www.w3.org/2000/svg">
</g>
<g xmlns="http://www.w3.org/2000/svg">
</g>
<g xmlns="http://www.w3.org/2000/svg">
</g>
<g xmlns="http://www.w3.org/2000/svg">
</g>
</g></svg>
