<svg width="230" height="130" viewBox="0 0 230 130" fill="none" xmlns="http://www.w3.org/2000/svg">
<rect x="0.44043" y="1.07251" width="229.187" height="128.679" rx="14.2845" fill="#263268"/>
<path d="M70.1157 85.8356C42.3421 85.8356 12.4208 100.02 0.881836 108.304C10.1632 104.673 35.3814 95.5567 60.7089 99.1125C82.5326 102.176 115.017 120.106 126.18 129.752H157.787C140.102 115.907 103.228 85.8356 70.1157 85.8356Z" fill="url(#paint0_linear)" fill-opacity="0.5"/>
<path d="M157.993 46.0169C185.766 46.3357 215.812 32.4951 227.425 24.3441C218.111 27.8686 192.813 36.695 167.518 32.8487C145.723 29.5344 113.401 11.233 102.325 1.4598L70.7199 1.09705C88.2798 15.1436 124.883 45.6369 157.993 46.0169Z" fill="url(#paint1_linear)" fill-opacity="0.5"/>
<path fill-rule="evenodd" clip-rule="evenodd" d="M24.6812 17.9386C25.8677 19.5257 26.5909 21.6345 26.5909 23.9488C26.5909 26.2631 25.8677 28.372 24.6812 29.9591C26.0249 31.7565 27.9627 32.8849 30.1172 32.8849C34.1742 32.8849 37.463 28.8841 37.463 23.9488C37.463 19.0136 34.1742 15.0128 30.1172 15.0128C27.9627 15.0128 26.0249 16.1411 24.6812 17.9386ZM24.6812 17.9386C23.3375 16.1411 21.3996 15.0128 19.2452 15.0128C15.1882 15.0128 11.8994 19.0136 11.8994 23.9488C11.8994 28.8841 15.1882 32.8849 19.2452 32.8849C21.3997 32.8849 23.3375 31.7565 24.6812 29.9591C23.4947 28.372 22.7715 26.2631 22.7715 23.9488C22.7715 21.6345 23.4947 19.5257 24.6812 17.9386Z" fill="#5263B4"/>
<defs>
<linearGradient id="paint0_linear" x1="79.3343" y1="85.8356" x2="79.3343" y2="129.752" gradientUnits="userSpaceOnUse">
<stop stop-color="#506DF5"/>
<stop offset="1" stop-color="#010204" stop-opacity="0"/>
</linearGradient>
<linearGradient id="paint1_linear" x1="148.775" y1="45.9111" x2="149.279" y2="1.99871" gradientUnits="userSpaceOnUse">
<stop stop-color="#506DF5"/>
<stop offset="1" stop-color="#010204" stop-opacity="0"/>
</linearGradient>
</defs>
</svg>
