<svg width="185" height="135" viewBox="0 0 185 135" fill="none" xmlns="http://www.w3.org/2000/svg">
<path d="M149.103 77.1922C146.782 77.1922 144.556 77.8624 142.915 79.0553C141.274 80.2481 140.352 81.866 140.352 83.553V85.9701L127.402 76.5562C122.829 73.2584 116.649 71.4079 110.208 71.4079C103.766 71.4079 97.5859 73.2584 93.0132 76.5562L86.888 81.0087L65.1873 65.234C60.5507 62.0256 54.3944 60.2362 47.993 60.2362C41.5916 60.2362 35.4353 62.0256 30.7987 65.234L17.8482 74.6479V39.0275C17.8482 37.3405 18.7701 35.7226 20.4111 34.5298C22.0521 33.3369 24.2778 32.6667 26.5985 32.6667H87.8505C90.1713 32.6667 92.3969 31.9966 94.0379 30.8037C95.6789 29.6108 96.6008 27.9929 96.6008 26.306C96.6008 24.619 95.6789 23.0011 94.0379 21.8082C92.3969 20.6153 90.1713 19.9452 87.8505 19.9452H26.5985C19.6364 19.9452 12.9593 21.9556 8.03636 25.5343C3.11337 29.1129 0.347656 33.9666 0.347656 39.0275V115.357C0.347656 120.418 3.11337 125.272 8.03636 128.85C12.9593 132.429 19.6364 134.439 26.5985 134.439H131.602C138.564 134.439 145.241 132.429 150.164 128.85C155.087 125.272 157.853 120.418 157.853 115.357V83.553C157.853 81.866 156.931 80.2481 155.29 79.0553C153.649 77.8624 151.423 77.1922 149.103 77.1922ZM26.5985 121.718C24.2778 121.718 22.0521 121.048 20.4111 119.855C18.7701 118.662 17.8482 117.044 17.8482 115.357V92.6489L43.2241 74.2027C44.5096 73.3122 46.2172 72.8154 47.993 72.8154C49.7687 72.8154 51.4764 73.3122 52.7619 74.2027L80.5003 94.3664L118.127 121.718H26.5985ZM140.352 115.357C140.34 116.575 139.787 117.757 138.777 118.728L99.3134 89.9138L105.439 85.4613C106.066 84.9958 106.815 84.6261 107.641 84.3736C108.468 84.1212 109.355 83.9912 110.251 83.9912C111.148 83.9912 112.035 84.1212 112.861 84.3736C113.688 84.6261 114.437 84.9958 115.064 85.4613L140.352 103.971V115.357ZM181.566 21.7898L155.315 2.70744C154.483 2.12835 153.502 1.67441 152.428 1.37168C150.297 0.735483 147.908 0.735483 145.777 1.37168C144.703 1.67441 143.722 2.12835 142.89 2.70744L116.639 21.7898C114.991 22.9876 114.066 24.6121 114.066 26.306C114.066 27.9998 114.991 29.6244 116.639 30.8221C118.287 32.0199 120.521 32.6928 122.852 32.6928C125.182 32.6928 127.417 32.0199 129.064 30.8221L140.352 22.5531V58.1099C140.352 59.7969 141.274 61.4148 142.915 62.6076C144.556 63.8005 146.782 64.4707 149.103 64.4707C151.423 64.4707 153.649 63.8005 155.29 62.6076C156.931 61.4148 157.853 59.7969 157.853 58.1099V22.5531L169.141 30.8221C169.954 31.4183 170.922 31.8915 171.988 32.2144C173.055 32.5374 174.198 32.7036 175.353 32.7036C176.509 32.7036 177.652 32.5374 178.719 32.2144C179.785 31.8915 180.753 31.4183 181.566 30.8221C182.386 30.2308 183.037 29.5273 183.481 28.7522C183.926 27.977 184.154 27.1457 184.154 26.306C184.154 25.4663 183.926 24.6349 183.481 23.8597C183.037 23.0846 182.386 22.3811 181.566 21.7898Z" fill="#F5F5F5"/>
</svg>
